HIERARCHY
ROOT Hips
{
  OFFSET 3.13124 94.3669 -3.18751
  CHANNELS  6 Xposition Yposition Zposition Zrotation Xrotation Yrotation
  JOINT LeftUpLeg
  {
    OFFSET 8.64259 1.95398 -2.38835
    CHANNELS 3 Zrotation Xrotation Yrotation
    JOINT LeftLeg
    {
      OFFSET 43.7702 0 0
      CHANNELS 3 Zrotation Xrotation Yrotation
      JOINT LeftFoot
      {
        OFFSET 40.6238 0 0
        CHANNELS 3 Zrotation Xrotation Yrotation
        JOINT LeftToeBase
        {
          OFFSET 12.7242 0 0
          CHANNELS 3 Zrotation Xrotation Yrotation
          End Site
          {
            OFFSET 0 0 0
          }
        }
      }
    }
  }
  JOINT RightUpLeg
  {
    OFFSET -8.2249 1.95398 -2.59336
    CHANNELS 3 Zrotation Xrotation Yrotation
    JOINT RightLeg
    {
      OFFSET 43.5653 0 0
      CHANNELS 3 Zrotation Xrotation Yrotation
      JOINT RightFoot
      {
        OFFSET 40.6238 0 0
        CHANNELS 3 Zrotation Xrotation Yrotation
        JOINT RightToeBase
        {
          OFFSET 12.7242 0 0
          CHANNELS 3 Zrotation Xrotation Yrotation
          End Site
          {
            OFFSET 0 0 0
          }
        }
      }
    }
  }
  JOINT Spine
  {
    OFFSET 0.165834 0.87714 6.61349
    CHANNELS 3 Zrotation Xrotation Yrotation
    JOINT Spine1
    {
      OFFSET 7.38962 1.71661e-005 0
      CHANNELS 3 Zrotation Xrotation Yrotation
      JOINT Spine2
      {
        OFFSET 11.9445 1.14441e-005 0
        CHANNELS 3 Zrotation Xrotation Yrotation
        JOINT Spine3
        {
          OFFSET 14.7254 4.19617e-005 0
          CHANNELS 3 Zrotation Xrotation Yrotation
          JOINT Spine4
          {
            OFFSET 10.9679 0 0
            CHANNELS 3 Zrotation Xrotation Yrotation
            JOINT RightShoulder
            {
              OFFSET 2.46616 -1.6653 3.69651
              CHANNELS 3 Zrotation Xrotation Yrotation
              JOINT RightArm
              {
                OFFSET 13.0012 0 0
                CHANNELS 3 Zrotation Xrotation Yrotation
                JOINT RightForeArm
                {
                  OFFSET 28.7848 1.52588e-005 0
                  CHANNELS 3 Zrotation Xrotation Yrotation
                  JOINT RightHand
                  {
                    OFFSET 26.5688 1.52588e-005 0
                    CHANNELS 3 Zrotation Xrotation Yrotation
                    End Site
                    {
                      OFFSET 0 0 0
                    }
                  }
                }
              }
            }
            JOINT LeftShoulder
            {
              OFFSET 2.38034 -1.29275 -3.75231
              CHANNELS 3 Zrotation Xrotation Yrotation
              JOINT LeftArm
              {
                OFFSET 16.3182 6.10352e-005 0
                CHANNELS 3 Zrotation Xrotation Yrotation
                JOINT LeftForeArm
                {
                  OFFSET 27.0901 0 0
                  CHANNELS 3 Zrotation Xrotation Yrotation
                  JOINT LeftHand
                  {
                    OFFSET 24.5451 1.52588e-005 0
                    CHANNELS 3 Zrotation Xrotation Yrotation
                    End Site
                    {
                      OFFSET 0 0 0
                    }
                  }
                }
              }
            }
            JOINT Neck
            {
              OFFSET 5.0226 -0.0266342 0
              CHANNELS 3 Zrotation Xrotation Yrotation
              JOINT Head
              {
                OFFSET 6.69363 2.86102e-005 0
                CHANNELS 3 Zrotation Xrotation Yrotation
                End Site
                {
                  OFFSET 0 0 0
                }
              }
            }
          }
        }
      }
    }
  }
}
MOTION
Frames:	7
Frame Time:	0.0333333
-33.5395 93.5693 21.5439 90.8824 60.811 95.507 -176.746 13.3563 107.445 -38.3875 -20.4205 -1.46655 54.196 -1.29334 -1.26549 28.7808 8.29867e-006 1.40592e-005 160.249 19.7941 77.9582 -23.5882 -25.3564 -0.034814 26.6305 26.8752 0.0925336 28.7808 8.71266e-006 1.94561e-005 -0.247679 6.82766 -85.8237 13.1763 1.09828 4.01222 1.49976 1.27363 3.96268 -20.9855 -0.157715 4.15626 -0.972864 -0.157711 4.15623 102.152 -18.2376 -82.167 32.2979 -14.7268 11.2667 -96.2583 40.4807 -90.7801 -39.8516 3.69712 -15.4663 -77.7733 -21.1259 97.0508 101.904 31.9554 -153.975 -150.243 -55.2451 179.925 68.1599 -4.3019 -10.2961 58.7368 24.2019 19.412 -51.6423 11.6054 -6.92246 
-30.4658 94.5356 22.3971 91.1834 56.0819 92.7081 -177.379 13.3828 104.351 -40.5092 -7.86891 -0.326235 49.1479 1.10797 0.229562 28.7808 8.29867e-006 1.40592e-005 160.27 18.2953 78.5738 -19.1702 -26.7282 0.223249 28.968 28.6598 -6.90916 28.7808 8.71266e-006 1.94561e-005 -0.537487 6.65304 -85.9196 13.4996 0.552114 3.94678 1.82283 0.724942 3.92187 -20.6656 -0.64773 3.92615 -0.652921 -0.647738 3.92612 102.152 -18.2376 -82.167 33.3445 -16.2775 7.65245 -80.3842 33.6946 -99.997 -43.1663 -0.610199 -3.66135 -77.7733 -21.1259 97.0508 103.872 29.833 -155.066 -151.85 -69.6287 179.883 60.911 -3.10476 -9.21995 61.4643 30.0991 18.6815 -52.1507 16.2856 -5.14558 
-28.2545 94.3685 23.3298 90.5334 51.6817 90.9822 -179.743 18.5227 100.235 -52.9419 -5.59801 0.121474 46.8586 -5.07103 -4.64029 28.7808 8.29867e-006 1.40592e-005 161.566 19.6325 79.189 -21.8753 -22.8636 -0.794199 39.9067 21.8002 -11.9457 28.7808 8.71266e-006 1.94561e-005 -0.485797 6.6321 -86.7235 13.5858 0.378419 3.44925 1.91049 0.5296 3.42929 -20.5894 -0.676178 3.40366 -0.576755 -0.676188 3.40365 102.152 -18.2376 -82.167 33.0686 -15.0945 5.71285 -70.4914 30.2768 -104.771 -49.3887 -7.81269 12.217 -77.7733 -21.1259 97.0508 98.3984 35.917 -153.257 -146.386 -83.2562 179.59 57.2302 -1.51163 -6.81388 61.0731 34.6903 20.5308 -48.9243 19.2687 -5.08474 
-26.7848 92.6338 24.1112 91.9167 47.5333 88.6653 179.154 24.9598 96.4701 -67.9869 -11.9369 0.133317 42.0591 -6.53088 -6.38843 28.7808 8.29867e-006 1.40592e-005 162.815 22.353 79.7075 -29.879 -22.3784 -2.61671 52.4127 16.4029 -16.1828 28.7808 8.71266e-006 1.94561e-005 -0.37172 6.8879 -87.7152 13.0769 0.246934 2.67275 1.40317 0.367003 2.65924 -21.1103 -0.572141 2.62421 -1.09767 -0.572159 2.62421 102.152 -18.2376 -82.167 31.7551 -8.20485 3.32595 -65.1371 26.0167 -106.045 -60.4472 -7.94666 8.78537 -77.7733 -21.1259 97.0508 92.4979 39.236 -149.944 41.0732 -88.6554 2.2974 57.5857 -2.74955 -8.93359 60.4803 36.3483 19.417 -45.7532 20.8419 -2.62863 
-25.8254 90.046 24.9051 95.9237 42.0061 86.7293 179.706 29.3711 93.0231 -80.6346 -7.24953 0.806606 34.4159 -9.85947 -10.7515 28.7808 8.29867e-006 1.40592e-005 163.854 23.6007 81.1149 -38.3651 -25.1856 -3.11652 63.5467 12.4296 -22.4652 28.7808 8.71266e-006 1.94561e-005 0.00166296 7.44127 -89.0005 11.9926 0.490707 1.12382 0.321279 0.53967 1.10114 -22.2101 0.130287 1.21934 -2.19745 0.130286 1.21932 102.152 -18.2376 -82.167 30.1201 -3.88315 0.646159 -58.4248 24.9345 -109.259 -64.1915 -13.5498 16.7083 -77.7733 -21.1259 97.0508 84.5296 43.8228 -145.761 44.405 -74.6552 0.226715 58.1433 -2.85246 -9.06518 58.1948 37.5331 19.4564 -43.0121 22.1532 -1.18762 
-25.2045 87.6606 25.4453 97.3663 35.3896 87.8973 -178.551 34.3239 89.061 -88.709 1.95189 1.59507 24.3105 -14.7069 -18.6567 28.7808 8.29867e-006 1.40592e-005 163.936 25.814 83.564 -44.472 -31.1377 -2.34073 69.413 7.96604 -28.2543 28.7808 8.71266e-006 1.94561e-005 0.392888 7.70381 -90.5526 11.4594 0.768595 -0.38824 -0.211424 0.750962 -0.421682 -22.7482 0.849677 -0.139294 -2.73556 0.849674 -0.139312 102.152 -18.2376 -82.167 29.2412 1.57381 -1.35574 -59.2963 21.2012 -106.556 -68.1217 -10.6502 10.8419 -77.7733 -21.1259 97.0508 82.1573 44.992 -144.671 46.8446 -59.614 0.123933 56.9528 -1.63126 -7.03771 54.6558 36.3972 16.0606 -40.0737 23.1752 2.15259 
-24.383 85.7882 25.4554 94.76 27.47 90.5593 -175.518 40.9117 83.9703 -91.885 6.9243 1.97785 11.6108 -19.8118 -30.8303 28.7808 8.29867e-006 1.40592e-005 164.292 30.9763 86.4056 -49.3445 -41.0602 -1.91623 71.3377 5.64023 -35.6998 28.7808 8.71266e-006 1.94561e-005 0.942061 7.75977 -91.6365 11.3327 1.34717 -1.52988 -0.338629 1.27495 -1.58771 -22.8753 1.74536 -1.05405 -2.86265 1.74532 -1.05407 102.152 -18.2376 -82.167 29.0373 2.06407 -4.0647 -47.7281 16.3469 -108.993 -72.7587 -12.5582 12.1827 -77.7733 -21.1259 97.0508 84.3921 41.9457 -146.03 49.106 -51.4399 0.104132 55.094 -0.976286 -5.94999 56.2961 33.3549 7.8318 -41.3245 23.8935 5.94646 
